<?xml version="1.0" encoding="UTF-8"?>
<svg width="110px" height="76px" viewBox="0 0 110 76" version="1.1" xmlns="http://www.w3.org/2000/svg" xmlns:xlink="http://www.w3.org/1999/xlink">
    <title>Group 3</title>
    <g id="Old-design-with-changes" stroke="none" stroke-width="1" fill="none" fill-rule="evenodd">
        <g id="Email-Verification-message-" transform="translate(-637.000000, -214.000000)">
            <g id="Group-3" transform="translate(637.000000, 214.000000)">
                <path d="M89.0913242,0 C90.6817097,0 91.9817264,1.24321713 92.0725561,2.81083348 L92.0776256,2.98630137 L92.0775055,34.8902773 C91.5841283,34.8570598 91.0862725,34.8401826 90.5844749,34.8401826 C90.0826773,34.8401826 89.5848215,34.8570598 89.0914442,34.8902773 L89.0911507,5.01115068 L45.654581,34.2109243 L2.98615068,4.71815068 L2.98630137,55.2465753 L68.7350262,55.2466954 C68.7018086,55.7400726 68.6849315,56.2379284 68.6849315,56.739726 C68.6849315,57.2415237 68.7018086,57.7393794 68.7350262,58.2327567 L2.98630137,58.2328767 C1.39591583,58.2328767 0.0958992159,56.9896596 0.0050694391,55.4220432 L0,55.2465753 L0,2.98630137 C0,1.39591583 1.24321713,0.0958992159 2.81083348,0.0050694391 L2.98630137,0 L89.0913242,0 Z M85.8611507,2.98615068 L6.60515068,2.98615068 L45.6819498,29.994411 L85.8611507,2.98615068 Z" id="Combined-Shape" fill="#0C163B"></path>
                <path d="M91.5844749,38.3242009 C101.755089,38.3242009 110,46.5691123 110,56.739726 C110,66.9103397 101.755089,75.1552511 91.5844749,75.1552511 C81.4138612,75.1552511 73.1689498,66.9103397 73.1689498,56.739726 C73.1689498,46.5691123 81.4138612,38.3242009 91.5844749,38.3242009 Z M91.5844749,41.3105023 C83.0631499,41.3105023 76.1552511,48.2184011 76.1552511,56.739726 C76.1552511,65.261051 83.0631499,72.1689498 91.5844749,72.1689498 C100.1058,72.1689498 107.013699,65.261051 107.013699,56.739726 C107.013699,48.2184011 100.1058,41.3105023 91.5844749,41.3105023 Z" id="Oval" fill="#22AA00"></path>
                <polygon id="1" fill="#22AA00" points="93.5986484 64.5206134 93.5986484 49.2739726 93.3460685 49.2739726 87.1004566 51.868657 87.1004566 54.6929594 90.5676897 53.3611745 90.5676897 64.5206134"></polygon>
            </g>
        </g>
    </g>
</svg>